<svg width="132" height="132" viewBox="0 0 132 132" fill="none" xmlns="http://www.w3.org/2000/svg">
<g filter="url(#filter0_d)">
<rect x="16" y="8" width="100" height="100" rx="16" fill="white"/>
</g>
<path d="M69.8027 46.2803H64.5879C64.6465 47.9795 65.0713 49.249 65.8623 50.0889C66.6631 50.9287 67.8057 51.3486 69.29 51.3486C70.3643 51.3486 71.3652 51.1875 72.293 50.8652L72.7031 53.8535C71.5312 54.1367 70.3203 54.2783 69.0703 54.2783C66.5703 54.2783 64.6025 53.5752 63.167 52.1689C61.7314 50.7627 60.9746 48.7998 60.8965 46.2803H58.377V44.2148H60.8965V42.3398H58.377V40.2744H60.9111C61.0381 37.7842 61.834 35.8506 63.2988 34.4736C64.7637 33.0869 66.7314 32.3936 69.2021 32.3936C70.2373 32.3936 71.4043 32.5449 72.7031 32.8477L72.293 35.8506C71.2969 35.5186 70.3057 35.3525 69.3193 35.3525C67.8447 35.3525 66.7119 35.7725 65.9209 36.6123C65.1299 37.4521 64.6904 38.6729 64.6025 40.2744H69.8027V42.3398H64.5879V44.2148H69.8027V46.2803Z" fill="#8C9AAE"/>
<path d="M58.8047 78.9219H54.1328V82.4219H59.5938V84H52.1562V72.625H59.5391V74.2188H54.1328V77.3594H58.8047V78.9219ZM69.5234 72.625V80.2266C69.5234 81.4349 69.1354 82.3932 68.3594 83.1016C67.5885 83.8047 66.5599 84.1562 65.2734 84.1562C63.9714 84.1562 62.9375 83.8099 62.1719 83.1172C61.4062 82.4193 61.0234 81.4531 61.0234 80.2188V72.625H62.9922V80.2344C62.9922 80.9948 63.1849 81.5755 63.5703 81.9766C63.9557 82.3776 64.5234 82.5781 65.2734 82.5781C66.7943 82.5781 67.5547 81.776 67.5547 80.1719V72.625H69.5234ZM75.8203 79.6172H73.6172V84H71.6406V72.625H75.6406C76.9531 72.625 77.9661 72.9193 78.6797 73.5078C79.3932 74.0964 79.75 74.9479 79.75 76.0625C79.75 76.8229 79.5651 77.4609 79.1953 77.9766C78.8307 78.487 78.3203 78.8802 77.6641 79.1562L80.2188 83.8984V84H78.1016L75.8203 79.6172ZM73.6172 78.0312H75.6484C76.3151 78.0312 76.8359 77.8646 77.2109 77.5312C77.5859 77.1927 77.7734 76.7318 77.7734 76.1484C77.7734 75.5391 77.599 75.0677 77.25 74.7344C76.9062 74.401 76.3906 74.2292 75.7031 74.2188H73.6172V78.0312Z" fill="#8C9AAE"/>
<defs>
<filter id="filter0_d" x="0" y="0" width="132" height="132" filterUnits="userSpaceOnUse" color-interpolation-filters="sRGB">
<feFlood flood-opacity="0" result="BackgroundImageFix"/>
<feColorMatrix in="SourceAlpha" type="matrix" values="0 0 0 0 0 0 0 0 0 0 0 0 0 0 0 0 0 0 127 0"/>
<feOffset dy="8"/>
<feGaussianBlur stdDeviation="8"/>
<feColorMatrix type="matrix" values="0 0 0 0 0.545098 0 0 0 0 0.643137 0 0 0 0 0.733333 0 0 0 0.12 0"/>
<feBlend mode="normal" in2="BackgroundImageFix" result="effect1_dropShadow"/>
<feBlend mode="normal" in="SourceGraphic" in2="effect1_dropShadow" result="shape"/>
</filter>
</defs>
</svg>
