<svg width="132" height="132" viewBox="0 0 132 132" fill="none" xmlns="http://www.w3.org/2000/svg">
<g filter="url(#filter0_d)">
<rect x="16" y="8" width="100" height="100" rx="16" fill="#0083E1"/>
</g>
<path d="M64.4561 45.2402L64.5586 47.8184C64.5586 49.1367 64.2461 50.2109 63.6211 51.041H73.8164L73.8018 54H58.4355V51.041H59.6367C60.0176 50.9531 60.3105 50.6406 60.5156 50.1035C60.7305 49.5566 60.8379 48.8389 60.8379 47.9502L60.7354 45.2402H58.377V42.3252H60.6475L60.5303 38.7803C60.5303 36.8076 61.1406 35.25 62.3613 34.1074C63.582 32.9648 65.1836 32.3936 67.166 32.3936C69.1484 32.3936 70.7061 32.9258 71.8389 33.9902C72.9717 35.0547 73.5381 36.4854 73.5381 38.2822H69.9492C69.9492 37.3545 69.6904 36.6367 69.1729 36.1289C68.665 35.6113 67.9521 35.3525 67.0342 35.3525C66.165 35.3525 65.4766 35.6699 64.9688 36.3047C64.4707 36.9395 64.2217 37.7646 64.2217 38.7803L64.3535 42.3252H68.9092V45.2402H64.4561Z" fill="white"/>
<path d="M59.875 82.5234C59.4635 83.0599 58.8932 83.4661 58.1641 83.7422C57.4349 84.0182 56.6068 84.1562 55.6797 84.1562C54.7266 84.1562 53.8828 83.9401 53.1484 83.5078C52.4141 83.0755 51.8464 82.4583 51.4453 81.6562C51.0495 80.849 50.8438 79.9089 50.8281 78.8359V77.9453C50.8281 76.2266 51.2396 74.8854 52.0625 73.9219C52.8854 72.9531 54.0339 72.4688 55.5078 72.4688C56.7734 72.4688 57.7786 72.7812 58.5234 73.4062C59.2682 74.0312 59.7161 74.9323 59.8672 76.1094H57.9297C57.7109 74.7396 56.9167 74.0547 55.5469 74.0547C54.6615 74.0547 53.987 74.375 53.5234 75.0156C53.0651 75.651 52.8281 76.5859 52.8125 77.8203V78.6953C52.8125 79.9245 53.0703 80.8802 53.5859 81.5625C54.1068 82.2396 54.8281 82.5781 55.75 82.5781C56.7604 82.5781 57.4792 82.349 57.9062 81.8906V79.6641H55.5625V78.1641H59.875V82.5234ZM62.0469 84V72.625H65.9453C67.2318 72.625 68.2109 72.8828 68.8828 73.3984C69.5547 73.9141 69.8906 74.6823 69.8906 75.7031C69.8906 76.224 69.75 76.6927 69.4688 77.1094C69.1875 77.526 68.776 77.849 68.2344 78.0781C68.849 78.2448 69.3229 78.5599 69.6562 79.0234C69.9948 79.4818 70.1641 80.0339 70.1641 80.6797C70.1641 81.7474 69.8203 82.5677 69.1328 83.1406C68.4505 83.7135 67.4714 84 66.1953 84H62.0469ZM64.0234 78.8672V82.4219H66.2188C66.8385 82.4219 67.3229 82.2682 67.6719 81.9609C68.0208 81.6536 68.1953 81.2266 68.1953 80.6797C68.1953 79.4974 67.5911 78.8932 66.3828 78.8672H64.0234ZM64.0234 77.4141H65.9609C66.5755 77.4141 67.0547 77.276 67.3984 77C67.7474 76.7188 67.9219 76.3229 67.9219 75.8125C67.9219 75.25 67.7604 74.8438 67.4375 74.5938C67.1198 74.3438 66.6224 74.2188 65.9453 74.2188H64.0234V77.4141ZM74.1172 79.7734V84H72.1406V72.625H76.4922C77.763 72.625 78.7708 72.9557 79.5156 73.6172C80.2656 74.2786 80.6406 75.1536 80.6406 76.2422C80.6406 77.3568 80.2734 78.224 79.5391 78.8438C78.8099 79.4635 77.7865 79.7734 76.4688 79.7734H74.1172ZM74.1172 78.1875H76.4922C77.1953 78.1875 77.7318 78.0234 78.1016 77.6953C78.4714 77.362 78.6562 76.8828 78.6562 76.2578C78.6562 75.6432 78.4688 75.1536 78.0938 74.7891C77.7188 74.4193 77.2031 74.2292 76.5469 74.2188H74.1172V78.1875Z" fill="white"/>
<defs>
<filter id="filter0_d" x="0" y="0" width="132" height="132" filterUnits="userSpaceOnUse" color-interpolation-filters="sRGB">
<feFlood flood-opacity="0" result="BackgroundImageFix"/>
<feColorMatrix in="SourceAlpha" type="matrix" values="0 0 0 0 0 0 0 0 0 0 0 0 0 0 0 0 0 0 127 0"/>
<feOffset dy="8"/>
<feGaussianBlur stdDeviation="8"/>
<feColorMatrix type="matrix" values="0 0 0 0 0.545098 0 0 0 0 0.643137 0 0 0 0 0.733333 0 0 0 0.12 0"/>
<feBlend mode="normal" in2="BackgroundImageFix" result="effect1_dropShadow"/>
<feBlend mode="normal" in="SourceGraphic" in2="effect1_dropShadow" result="shape"/>
</filter>
</defs>
</svg>
