<svg width="132" height="132" viewBox="0 0 132 132" fill="none" xmlns="http://www.w3.org/2000/svg">
<g filter="url(#filter0_d)">
<rect x="16" y="8" width="100" height="100" rx="16" fill="white"/>
</g>
<path d="M66.9971 50.6162H62.2803V54H58.5889V50.6162H55.5859V47.6426H58.5889V46.0752H55.5859V43.1016H58.5889V32.6719H66.748C69.1016 32.6719 70.9814 33.2871 72.3877 34.5176C73.7939 35.7383 74.4971 37.3643 74.4971 39.3955C74.4971 41.4658 73.8281 43.0918 72.4902 44.2734C71.1523 45.4453 69.292 46.0459 66.9092 46.0752H62.2803V47.6426H66.9971V50.6162ZM62.2803 43.1016H66.6895C68.0176 43.1016 69.0332 42.7939 69.7363 42.1787C70.4395 41.5635 70.791 40.6455 70.791 39.4248C70.791 38.3311 70.4443 37.4375 69.751 36.7441C69.0674 36.0508 68.1201 35.6895 66.9092 35.6602H62.2803V43.1016Z" fill="#8C9AAE"/>
<path d="M55.3359 79.6172H53.1328V84H51.1562V72.625H55.1562C56.4688 72.625 57.4818 72.9193 58.1953 73.5078C58.9089 74.0964 59.2656 74.9479 59.2656 76.0625C59.2656 76.8229 59.0807 77.4609 58.7109 77.9766C58.3464 78.487 57.8359 78.8802 57.1797 79.1562L59.7344 83.8984V84H57.6172L55.3359 79.6172ZM53.1328 78.0312H55.1641C55.8307 78.0312 56.3516 77.8646 56.7266 77.5312C57.1016 77.1927 57.2891 76.7318 57.2891 76.1484C57.2891 75.5391 57.1146 75.0677 56.7656 74.7344C56.4219 74.401 55.9062 74.2292 55.2188 74.2188H53.1328V78.0312ZM69.4609 72.625V80.2266C69.4609 81.4349 69.0729 82.3932 68.2969 83.1016C67.526 83.8047 66.4974 84.1562 65.2109 84.1562C63.9089 84.1562 62.875 83.8099 62.1094 83.1172C61.3438 82.4193 60.9609 81.4531 60.9609 80.2188V72.625H62.9297V80.2344C62.9297 80.9948 63.1224 81.5755 63.5078 81.9766C63.8932 82.3776 64.4609 82.5781 65.2109 82.5781C66.7318 82.5781 67.4922 81.776 67.4922 80.1719V72.625H69.4609ZM71.5781 84V72.625H75.4766C76.763 72.625 77.7422 72.8828 78.4141 73.3984C79.0859 73.9141 79.4219 74.6823 79.4219 75.7031C79.4219 76.224 79.2812 76.6927 79 77.1094C78.7188 77.526 78.3073 77.849 77.7656 78.0781C78.3802 78.2448 78.8542 78.5599 79.1875 79.0234C79.526 79.4818 79.6953 80.0339 79.6953 80.6797C79.6953 81.7474 79.3516 82.5677 78.6641 83.1406C77.9818 83.7135 77.0026 84 75.7266 84H71.5781ZM73.5547 78.8672V82.4219H75.75C76.3698 82.4219 76.8542 82.2682 77.2031 81.9609C77.5521 81.6536 77.7266 81.2266 77.7266 80.6797C77.7266 79.4974 77.1224 78.8932 75.9141 78.8672H73.5547ZM73.5547 77.4141H75.4922C76.1068 77.4141 76.5859 77.276 76.9297 77C77.2786 76.7188 77.4531 76.3229 77.4531 75.8125C77.4531 75.25 77.2917 74.8438 76.9688 74.5938C76.651 74.3438 76.1536 74.2188 75.4766 74.2188H73.5547V77.4141Z" fill="#8C9AAE"/>
<defs>
<filter id="filter0_d" x="0" y="0" width="132" height="132" filterUnits="userSpaceOnUse" color-interpolation-filters="sRGB">
<feFlood flood-opacity="0" result="BackgroundImageFix"/>
<feColorMatrix in="SourceAlpha" type="matrix" values="0 0 0 0 0 0 0 0 0 0 0 0 0 0 0 0 0 0 127 0"/>
<feOffset dy="8"/>
<feGaussianBlur stdDeviation="8"/>
<feColorMatrix type="matrix" values="0 0 0 0 0.545098 0 0 0 0 0.643137 0 0 0 0 0.733333 0 0 0 0.12 0"/>
<feBlend mode="normal" in2="BackgroundImageFix" result="effect1_dropShadow"/>
<feBlend mode="normal" in="SourceGraphic" in2="effect1_dropShadow" result="shape"/>
</filter>
</defs>
</svg>
